<?xml version="1.0" encoding="utf-8"?>
<!-- Generator: Adobe Illustrator 16.0.0, SVG Export Plug-In . SVG Version: 6.00 Build 0)  -->
<!DOCTYPE svg PUBLIC "-//W3C//DTD SVG 1.1//EN" "http://www.w3.org/Graphics/SVG/1.1/DTD/svg11.dtd">
<svg version="1.1" id="Layer_1" xmlns="http://www.w3.org/2000/svg" xmlns:xlink="http://www.w3.org/1999/xlink" x="0px" y="0px"
	 width="236px" height="200px" viewBox="0 -38.5 236 200" enable-background="new 0 -38.5 236 200" xml:space="preserve">
<g>
	<g>
		<path fill="#EC1B4F" d="M62.981,82.664c0.047,5.246-1.728,9.396-5.322,12.459c-3.446,2.867-7.842,4.324-13.188,4.371
			c-1.941,0-3.886,0-5.829,0c0,5.248,0.021,10.496,0.072,15.74c0,0.582-0.193,1.068-0.585,1.461c-0.389,0.385-0.851,0.58-1.383,0.58
			c-4.275-0.1-8.55-0.316-12.824-0.656c-0.536-0.045-1.009-0.291-1.42-0.729c-0.416-0.438-0.645-0.924-0.694-1.455
			c-0.779-16.033-0.779-32.063,0-48.094c0.049-0.582,0.278-1.078,0.694-1.494c0.411-0.41,0.885-0.643,1.42-0.691
			c7.187-0.584,14.377-0.825,21.568-0.729c4.518,0.047,8.55,2.041,12.096,5.977C61.087,73.287,62.882,77.707,62.981,82.664z
			 M38.644,86.453c1.165,0,2.354,0,3.57,0c1.166,0,2.124-0.512,2.877-1.531c0.754-1.02,1.13-2.186,1.13-3.496
			c0-1.215-0.399-2.344-1.202-3.391c-0.802-1.043-1.738-1.564-2.805-1.564c-1.216,0-2.403,0-3.57,0
			C38.644,79.824,38.644,83.15,38.644,86.453z"/>
	</g>
	<g>
		<path fill="#EC1B4F" d="M67.733,76.715c0.839-1.986,2.096-3.816,3.774-5.5c1.68-1.678,3.714-3.021,6.094-4.041
			c2.385-1.055,5.124-1.588,8.217-1.588c3.092,0,5.827,0.531,8.212,1.588c2.385,1.02,4.417,2.363,6.095,4.041
			c1.68,1.682,2.938,3.514,3.775,5.5c0.884,2.033,1.329,4.086,1.329,6.16c0,2.076-0.445,4.131-1.329,6.162
			c-0.838,1.986-2.095,3.818-3.775,5.496c-1.677,1.68-3.71,3.027-6.095,4.043c-2.387,1.061-5.12,1.592-8.212,1.592
			c-3.093,0-5.833-0.531-8.217-1.592c-2.381-1.016-4.414-2.363-6.094-4.043c-1.678-1.678-2.936-3.51-3.774-5.496
			c-0.884-2.031-1.324-4.086-1.324-6.162C66.409,80.801,66.851,78.748,67.733,76.715z M80.846,82.875
			c0,0.797,0.099,1.566,0.299,2.318c0.203,0.75,0.523,1.416,0.96,1.99c0.44,0.572,0.974,1.047,1.594,1.422
			c0.616,0.377,1.333,0.563,2.152,0.563c0.815,0,1.531-0.186,2.148-0.563c0.621-0.375,1.152-0.85,1.594-1.422
			c0.44-0.574,0.761-1.24,0.959-1.99c0.2-0.752,0.298-1.521,0.298-2.318c0-0.795-0.098-1.566-0.298-2.318
			c-0.198-0.748-0.519-1.422-0.959-2.018c-0.441-0.6-0.973-1.072-1.594-1.426c-0.617-0.354-1.333-0.531-2.148-0.531
			c-0.819,0-1.536,0.178-2.152,0.531c-0.62,0.354-1.153,0.826-1.594,1.426c-0.437,0.596-0.757,1.27-0.96,2.018
			C80.944,81.309,80.846,82.08,80.846,82.875z"/>
		<path fill="#EC1B4F" d="M109.597,67.242c4.991-0.396,9.981-0.639,14.969-0.727c0,1.326-0.021,2.65-0.064,3.973
			c0.442-0.617,0.949-1.203,1.52-1.754c0.58-0.553,1.231-1.027,1.958-1.426c0.73-0.396,1.555-0.705,2.482-0.928
			c0.931-0.262,1.968-0.373,3.116-0.33c2.387,0.043,4.522,0.592,6.425,1.654c1.856,1.063,3.421,2.408,4.7,4.041
			c1.282,1.635,2.279,3.443,2.986,5.432c0.66,2.033,1.01,4.084,1.056,6.16c0.042,2.078-0.241,4.131-0.857,6.16
			c-0.666,1.988-1.626,3.775-2.883,5.367c-1.261,1.59-2.837,2.893-4.738,3.908c-0.926,0.486-1.94,0.861-3.045,1.125
			c-1.105,0.268-2.274,0.42-3.511,0.465c-2.21,0-4.063-0.355-5.567-1.061c-1.457-0.748-2.694-1.699-3.709-2.848
			c0,5.564,0.044,11.152,0.129,16.758c-4.987-0.088-9.957-0.334-14.901-0.729C108.733,97.383,108.712,82.301,109.597,67.242z
			 M124.399,85.557c0.197,0.689,0.514,1.305,0.931,1.855c0.418,0.555,0.94,1.008,1.555,1.359c0.622,0.354,1.346,0.529,2.188,0.529
			c1.674,0,2.933-0.619,3.775-1.854c0.84-1.234,1.257-2.594,1.257-4.074c0-1.479-0.417-2.85-1.257-4.109
			c-0.843-1.258-2.101-1.887-3.775-1.887c-0.844,0-1.568,0.18-2.188,0.531c-0.614,0.352-1.137,0.805-1.555,1.355
			c-0.417,0.555-0.733,1.195-0.931,1.922c-0.195,0.73-0.296,1.449-0.296,2.152C124.104,84.137,124.204,84.873,124.399,85.557z"/>
		<path fill="#EC1B4F" d="M191.674,98.906c-4.859,0.266-9.744,0.443-14.64,0.527c0.037-1.275,0.067-2.535,0.067-3.771
			c-0.884,1.457-2.034,2.561-3.446,3.311c-1.456,0.799-3.333,1.172-5.631,1.129c-2.431-0.047-4.64-0.574-6.622-1.592
			c-1.901-1.018-3.513-2.318-4.837-3.908c-1.372-1.633-2.413-3.445-3.114-5.434c-0.707-1.982-1.062-3.996-1.062-6.025
			c0-2.072,0.354-4.127,1.062-6.162c0.701-1.941,1.742-3.73,3.114-5.363c1.324-1.635,2.936-2.959,4.837-3.979
			c1.982-1.012,4.191-1.543,6.622-1.586c2.298-0.045,4.178,0.309,5.631,1.059c1.412,0.705,2.563,1.658,3.446,2.848
			c-0.051-1.148-0.067-2.34-0.067-3.576c4.897,0.088,9.78,0.262,14.64,0.531C192.51,77.602,192.51,88.266,191.674,98.906z
			 M176.896,82.512c0-0.818-0.11-1.588-0.33-2.318c-0.22-0.727-0.541-1.389-0.961-1.986c-0.417-0.596-0.968-1.068-1.653-1.422
			c-0.689-0.355-1.446-0.531-2.287-0.531c-0.885,0-1.653,0.176-2.319,0.531c-0.66,0.354-1.202,0.826-1.622,1.422
			c-0.423,0.598-0.752,1.26-0.995,1.986c-0.241,0.73-0.362,1.502-0.362,2.318s0.11,1.59,0.331,2.318
			c0.22,0.727,0.55,1.393,0.993,1.986c0.441,0.596,0.987,1.072,1.622,1.426c0.644,0.352,1.423,0.529,2.353,0.529
			c0.841,0,1.598-0.178,2.287-0.529c0.685-0.354,1.236-0.83,1.653-1.426c0.422-0.594,0.742-1.26,0.96-1.986
			C176.786,84.102,176.896,83.328,176.896,82.512z"/>
	</g>
	<g>
		<path d="M86.237,117.545c0.086,5.563-1.855,8.854-5.83,9.869c2.827,0.619,5.158,1.912,6.989,3.873
			c1.832,1.969,2.729,4.5,2.684,7.588c-0.134,4.193-1.57,7.617-4.308,10.268c-1.368,1.322-3.013,2.352-4.934,3.078
			c-1.924,0.727-4.049,1.115-6.393,1.156c-7.821,0.178-15.612-0.041-23.384-0.658c-0.532,0-0.984-0.197-1.36-0.598
			c-0.374-0.396-0.584-0.838-0.629-1.324c-0.794-14.613-0.794-29.188,0-43.719c0.045-0.529,0.255-0.98,0.629-1.359
			c0.376-0.373,0.828-0.582,1.36-0.627c7.11-0.529,14.24-0.75,21.396-0.664c3.93,0.043,7.175,1.314,9.736,3.809
			C84.753,110.732,86.102,113.834,86.237,117.545z M64.175,121.918c0.886,0,1.748,0,2.587,0c1.146,0,2.043-0.32,2.682-0.963
			c0.643-0.641,0.962-1.51,0.962-2.615c0-1.104-0.32-1.975-0.962-2.617c-0.639-0.641-1.514-0.961-2.616-0.961
			c-0.881,0-1.743,0-2.585,0C64.198,117.148,64.175,119.531,64.175,121.918z M64.309,140.73c1.372,0,2.717,0,4.043,0
			c1.148,0,2.083-0.311,2.814-0.928c0.73-0.617,1.094-1.502,1.094-2.648c0-1.15-0.354-2.025-1.061-2.619
			c-0.708-0.596-1.655-0.893-2.848-0.893c-1.371,0-2.72,0-4.043,0C64.309,135.982,64.309,138.344,64.309,140.73z"/>
		<path d="M92.063,129.932c0.842-1.988,2.101-3.82,3.775-5.5c1.679-1.676,3.715-3.023,6.094-4.039
			c2.391-1.061,5.126-1.59,8.216-1.59c3.095,0,5.829,0.529,8.214,1.59c2.387,1.016,4.412,2.363,6.094,4.039
			c1.677,1.68,2.938,3.512,3.775,5.5c0.885,2.031,1.325,4.084,1.325,6.158c0,2.076-0.44,4.133-1.325,6.16
			c-0.838,1.99-2.099,3.822-3.775,5.5c-1.681,1.676-3.707,3.021-6.094,4.041c-2.387,1.061-5.119,1.586-8.214,1.586
			c-3.09,0-5.827-0.525-8.216-1.586c-2.379-1.02-4.413-2.365-6.094-4.041c-1.675-1.678-2.934-3.51-3.775-5.5
			c-0.886-2.027-1.324-4.084-1.324-6.16C90.739,134.016,91.178,131.963,92.063,129.932z M105.179,136.09
			c0,0.797,0.1,1.568,0.296,2.32c0.203,0.75,0.524,1.412,0.965,1.988c0.436,0.576,0.969,1.049,1.586,1.42
			c0.619,0.379,1.335,0.566,2.153,0.566s1.533-0.188,2.155-0.566c0.615-0.373,1.147-0.846,1.587-1.42
			c0.445-0.578,0.763-1.238,0.961-1.988c0.197-0.75,0.296-1.523,0.296-2.32c0-0.793-0.099-1.568-0.296-2.318
			c-0.198-0.748-0.516-1.426-0.961-2.018c-0.439-0.598-0.972-1.072-1.587-1.426c-0.622-0.354-1.337-0.531-2.155-0.531
			s-1.534,0.178-2.153,0.531c-0.617,0.354-1.15,0.828-1.586,1.426c-0.44,0.59-0.762,1.268-0.965,2.018
			C105.278,134.521,105.179,135.297,105.179,136.09z"/>
		<path d="M151.22,120.654c1.499-0.703,3.354-1.057,5.564-1.057c2.519,0,4.722,0.508,6.621,1.523
			c1.896,1.016,3.478,2.316,4.74,3.908c1.257,1.59,2.196,3.377,2.811,5.367c0.622,1.982,0.906,4.041,0.862,6.158
			c-0.043,2.031-0.419,4.064-1.126,6.092c-0.659,2.033-1.633,3.871-2.91,5.5c-1.287,1.631-2.855,2.979-4.705,4.041
			c-1.902,1.105-4.044,1.678-6.429,1.727c-2.293,0.041-4.151-0.402-5.563-1.326c-1.369-0.885-2.538-1.928-3.512-3.117
			c0.046,1.191,0.067,2.406,0.067,3.645c-4.989-0.086-9.98-0.354-14.97-0.797c-0.838-16.074-0.819-32.146,0.066-48.221
			c4.944-0.441,9.914-0.709,14.903-0.797c-0.088,6.715-0.13,13.449-0.13,20.203C148.526,122.314,149.762,121.363,151.22,120.654z
			 M157.181,136.588c0-1.479-0.423-2.836-1.259-4.076c-0.842-1.236-2.1-1.854-3.776-1.854c-0.841,0-1.57,0.166-2.186,0.496
			c-0.623,0.332-1.139,0.785-1.558,1.357c-0.422,0.576-0.729,1.217-0.926,1.926c-0.2,0.707-0.297,1.408-0.297,2.117
			c0,0.795,0.11,1.535,0.331,2.219c0.219,0.686,0.525,1.314,0.927,1.891c0.395,0.572,0.899,1.027,1.522,1.359
			c0.615,0.328,1.347,0.496,2.186,0.496c1.676,0,2.935-0.617,3.776-1.855C156.758,139.424,157.181,138.072,157.181,136.588z"/>
		<path d="M214.15,152.119c-4.859,0.264-9.739,0.445-14.64,0.531c0.041-1.275,0.065-2.539,0.065-3.773
			c-0.887,1.455-2.034,2.557-3.444,3.311c-1.458,0.793-3.339,1.166-5.634,1.123c-2.429-0.043-4.638-0.568-6.621-1.588
			c-1.902-1.012-3.511-2.318-4.835-3.906c-1.368-1.635-2.407-3.443-3.115-5.432c-0.702-1.984-1.062-3.996-1.062-6.031
			c0-2.07,0.359-4.127,1.062-6.158c0.708-1.941,1.747-3.729,3.115-5.367c1.324-1.633,2.933-2.957,4.835-3.975
			c1.983-1.012,4.192-1.543,6.621-1.588c2.295-0.045,4.176,0.309,5.634,1.059c1.41,0.707,2.558,1.658,3.444,2.85
			c-0.045-1.148-0.065-2.342-0.065-3.576c4.901,0.088,9.782,0.264,14.64,0.531C214.984,130.816,214.984,141.479,214.15,152.119z
			 M199.377,135.727c0-0.816-0.114-1.592-0.333-2.318c-0.222-0.727-0.541-1.393-0.957-1.986c-0.425-0.594-0.974-1.068-1.661-1.426
			c-0.688-0.352-1.445-0.527-2.285-0.527c-0.885,0-1.655,0.176-2.32,0.527c-0.659,0.357-1.205,0.832-1.619,1.426
			c-0.42,0.594-0.755,1.26-0.997,1.986c-0.239,0.727-0.362,1.502-0.362,2.318c0,0.818,0.109,1.59,0.33,2.32
			c0.219,0.727,0.553,1.391,0.995,1.982c0.438,0.6,0.982,1.072,1.62,1.428c0.644,0.352,1.427,0.529,2.352,0.529
			c0.842,0,1.597-0.178,2.287-0.529c0.687-0.355,1.234-0.828,1.66-1.428c0.415-0.592,0.736-1.256,0.955-1.982
			C199.263,137.316,199.377,136.545,199.377,135.727z"/>
	</g>
</g>
<g>
	<path fill="#85CCB1" d="M160.06,22.33c-0.121,21.292-8.038,38.244-42.279,38.316c-31.818,0.065-41.963-17.501-41.84-38.797
		c0.124-21.291,8.848-37.987,42.28-38.314C153.003-16.806,160.182,1.041,160.06,22.33z"/>
	<path fill="#FFFFFF" d="M101.272,27.967c-6.107-0.032-11.048-4.941-11.014-10.931c0.033-5.997,5.031-10.842,11.138-10.808
		c6.108,0.034,11.05,4.939,11.016,10.934C112.376,23.155,107.381,28.001,101.272,27.967z M101.378,9.462
		c-4.323-0.025-7.86,3.381-7.885,7.59c-0.023,4.212,3.474,7.657,7.795,7.682c4.326,0.022,7.861-3.381,7.886-7.591
		C109.202,12.931,105.702,9.485,101.378,9.462z"/>
	<path d="M118.792,33.237c-3.424-0.018-6.188-2.648-6.169-5.865l1.078,0.004c-0.018,2.624,2.273,4.768,5.097,4.78
		c2.825,0.018,5.133-2.097,5.15-4.719l1.078,0.004C125.005,30.659,122.212,33.257,118.792,33.237z"/>
	<path fill="#B8DEC6" d="M86.721-18.443c-5.358,1.078,10.147,18.094,34.237,12.229c8.526-2.077,15.839-8.272,14.269-16.06
		c-1.566-7.784-9.973-12.691-18.602-11.062C101.651-30.511,104.493-22.015,86.721-18.443z"/>
	<g>
		<path fill="#85CCB1" d="M87.122-17.449c-0.739,0.178,1.389,2.857,1.801,3.302c2.521,2.685,6,4.495,9.386,5.821
			c10.153,3.976,25.738,3.618,33.282-5.265c4.127-4.857,2.635-11.549-1.911-15.534c-5.135-4.492-12.405-4.02-18.333-1.581
			c-3.859,1.589-6.689,4.589-9.909,7.115C97.249-20.305,92.285-18.533,87.122-17.449c-1.511,0.318-2.537-1.622-0.805-1.988
			c5.731-1.201,10.604-3.315,15.059-7.118c3.3-2.814,6.456-5.226,10.6-6.685c5.577-1.962,11.647-2.016,16.928,0.793
			c4.695,2.497,7.998,7.399,7.869,12.792c-0.129,5.326-4.431,9.366-8.722,11.844c-5.169,2.982-11.631,3.882-17.512,3.865
			C102.118-3.973,93-6.757,86.885-12.75c-1.664-1.628-4.406-5.749-0.565-6.688C87.826-19.804,88.84-17.869,87.122-17.449z"/>
		<path fill="#85CCB1" d="M88.547-17.938c4.351,1.713,8.49,1.679,12.84,0.05c2.743-1.028,5.193-2.702,7.788-4.028
			c4.729-2.417,11.526-3.952,16.767-2.44c3.454,0.996,5.728,3.363,7.755,6.208c1.501,2.112,5.904,7.131,4.486,10.212
			c-0.424,0.93-3.088,0.976-2.632-0.011c0.37-0.805-0.1-1.994-0.354-2.751c-0.852-2.554-2.651-4.739-4.197-6.905
			c-2.303-3.24-5.008-5.477-9.146-5.691c-6.25-0.322-11.42,2.845-16.732,5.544c-5.849,2.967-12.137,3.616-18.293,1.191
			C85.358-17.141,87.634-18.297,88.547-17.938L88.547-17.938z"/>
	</g>
	<path fill="#FFFFFF" d="M136.503,27.812c-6.108-0.037-11.049-4.941-11.012-10.937c0.033-5.994,5.031-10.84,11.135-10.804
		c6.109,0.035,11.052,4.94,11.017,10.935C147.608,23,142.612,27.846,136.503,27.812z M136.609,9.306
		c-4.325-0.026-7.86,3.379-7.886,7.591c-0.023,4.209,3.475,7.655,7.796,7.681c4.325,0.023,7.861-3.382,7.885-7.593
		C144.431,12.773,140.933,9.331,136.609,9.306z"/>
	<ellipse transform="matrix(0.0059 -1 1 0.0059 62.0554 124.8411)" fill="#F5ADCD" cx="93.818" cy="31.209" rx="2.11" ry="5.078"/>
	<path fill="#F5ADCD" d="M149.676,30c-0.003,1.167-2.283,2.101-5.087,2.084c-2.806-0.018-5.071-0.974-5.066-2.143
		c0.007-1.164,2.285-2.097,5.091-2.083C147.42,27.872,149.686,28.835,149.676,30z"/>
	<path d="M106.453,1.008c0,0-3.144-5.508-8.208-4.15c-5.069,1.358-6.766,6.172-4.403,6.341c2.36,0.168,2.306-5.008,7.135-4.351
		c1.653,0.221,3.59,1.554,4.619,2.088C106.362,1.338,106.453,1.008,106.453,1.008z"/>
	<path d="M129.201,0.059c0,0,3.209-5.471,8.26-4.054c5.053,1.414,6.694,6.245,4.331,6.389c-2.367,0.14-2.252-5.03-7.09-4.432
		c-1.655,0.204-3.607,1.511-4.639,2.038C129.289,0.393,129.201,0.059,129.201,0.059z"/>
	
		<ellipse transform="matrix(0.2791 -0.9603 0.9603 0.2791 56.8705 109.4669)" fill="#020202" cx="101.338" cy="16.859" rx="7.748" ry="8.024"/>
	
		<ellipse transform="matrix(0.279 -0.9603 0.9603 0.279 82.3501 143.5667)" fill="#020202" cx="136.786" cy="16.941" rx="7.752" ry="8.024"/>
	
		<ellipse transform="matrix(0.279 -0.9603 0.9603 0.279 62.9666 110.4287)" fill="#FFFFFF" cx="105.023" cy="13.282" rx="2.287" ry="2.367"/>
	
		<ellipse transform="matrix(0.2793 -0.9602 0.9602 0.2793 88.1637 145.0474)" fill="#FFFFFF" cx="140.706" cy="13.793" rx="2.283" ry="2.367"/>
</g>
</svg>
