<?xml version="1.0" encoding="utf-8"?>
<!-- Generator: Adobe Illustrator 16.0.0, SVG Export Plug-In . SVG Version: 6.00 Build 0)  -->
<!DOCTYPE svg PUBLIC "-//W3C//DTD SVG 1.1//EN" "http://www.w3.org/Graphics/SVG/1.1/DTD/svg11.dtd">
<svg version="1.1" id="punchy-logo" xmlns="http://www.w3.org/2000/svg" xmlns:xlink="http://www.w3.org/1999/xlink" x="0px"
	 y="0px" width="205.834px" height="101.695px" viewBox="-41 -20.848 205.834 101.695"
	 enable-background="new -41 -20.848 205.834 101.695" xml:space="preserve">
<g>
	<path fill="#EC1B4F" d="M50.875,11.478c0.034,3.772-1.243,6.755-3.825,8.957c-2.479,2.061-5.64,3.108-9.48,3.142
		c-1.396,0-2.793,0-4.19,0c0,3.774,0.016,7.543,0.052,11.316c0,0.417-0.14,0.769-0.42,1.048c-0.28,0.279-0.611,0.418-0.995,0.418
		c-3.073-0.07-6.146-0.227-9.22-0.473c-0.385-0.034-0.724-0.208-1.02-0.524c-0.3-0.314-0.465-0.663-0.5-1.047
		c-0.56-11.526-0.56-23.049,0-34.574c0.035-0.417,0.2-0.774,0.499-1.073c0.295-0.296,0.635-0.463,1.02-0.497
		c5.168-0.418,10.337-0.593,15.505-0.524c3.25,0.035,6.146,1.468,8.696,4.296C49.513,4.735,50.803,7.914,50.875,11.478z
		 M33.378,14.199c0.838,0,1.691,0,2.566,0c0.838,0,1.526-0.366,2.068-1.1c0.542-0.732,0.812-1.572,0.812-2.514
		c0-0.873-0.289-1.684-0.864-2.438c-0.576-0.75-1.25-1.125-2.017-1.125c-0.875,0-1.729,0-2.566,0
		C33.378,9.434,33.378,11.826,33.378,14.199z"/>
</g>
<g>
	<path fill="#EC1B4F" d="M54.292,7.2c0.603-1.429,1.506-2.746,2.714-3.953c1.208-1.207,2.67-2.172,4.382-2.904
		c1.714-0.76,3.684-1.14,5.904-1.14s4.19,0.381,5.904,1.14c1.714,0.732,3.175,1.699,4.378,2.904c1.21,1.209,2.114,2.526,2.716,3.953
		c0.636,1.461,0.956,2.936,0.956,4.429c0,1.493-0.32,2.971-0.956,4.431c-0.602,1.429-1.506,2.746-2.716,3.952
		c-1.205,1.207-2.664,2.175-4.378,2.904c-1.718,0.764-3.684,1.144-5.904,1.144s-4.19-0.381-5.904-1.144
		c-1.714-0.729-3.174-1.699-4.382-2.904c-1.208-1.208-2.11-2.524-2.714-3.952c-0.635-1.459-0.953-2.938-0.953-4.431
		C53.339,10.136,53.657,8.662,54.292,7.2z M63.72,11.629c0,0.573,0.069,1.128,0.213,1.667c0.145,0.539,0.377,1.018,0.691,1.432
		c0.319,0.412,0.698,0.753,1.145,1.021c0.443,0.27,0.959,0.403,1.549,0.403c0.586,0,1.102-0.133,1.546-0.403
		c0.444-0.269,0.826-0.61,1.145-1.021c0.316-0.413,0.546-0.892,0.689-1.432c0.144-0.54,0.215-1.094,0.215-1.667
		c0-0.57-0.071-1.126-0.215-1.667c-0.144-0.539-0.372-1.021-0.689-1.451c-0.32-0.43-0.7-0.771-1.145-1.024
		c-0.444-0.255-0.96-0.381-1.546-0.381c-0.59,0-1.105,0.126-1.549,0.381c-0.446,0.255-0.828,0.595-1.145,1.024
		c-0.314,0.43-0.547,0.914-0.691,1.451C63.789,10.502,63.72,11.057,63.72,11.629z"/>
	<path fill="#EC1B4F" d="M84.388,0.39c3.586-0.285,7.175-0.459,10.759-0.522c0,0.952-0.016,1.904-0.047,2.857
		c0.321-0.445,0.685-0.866,1.094-1.262c0.416-0.398,0.887-0.739,1.409-1.024c0.524-0.286,1.117-0.507,1.784-0.667
		c0.669-0.189,1.416-0.268,2.241-0.238c1.714,0.032,3.251,0.426,4.617,1.19c1.336,0.763,2.46,1.73,3.379,2.904
		c0.922,1.176,1.639,2.475,2.147,3.906c0.476,1.461,0.727,2.936,0.762,4.429c0.03,1.494-0.176,2.971-0.619,4.43
		c-0.478,1.429-1.169,2.714-2.073,3.858c-0.907,1.141-2.038,2.079-3.406,2.81c-0.666,0.348-1.396,0.62-2.19,0.808
		c-0.794,0.191-1.635,0.302-2.523,0.333c-1.588,0-2.92-0.255-4.001-0.762c-1.047-0.539-1.938-1.222-2.668-2.047
		c0,3.999,0.034,8.018,0.095,12.049c-3.584-0.063-7.156-0.239-10.712-0.524C83.768,22.058,83.752,11.216,84.388,0.39z
		 M95.027,13.557c0.145,0.494,0.368,0.938,0.671,1.334c0.301,0.4,0.675,0.724,1.117,0.977c0.446,0.255,0.968,0.382,1.574,0.382
		c1.205,0,2.107-0.445,2.713-1.334c0.604-0.888,0.905-1.864,0.905-2.929c0-1.063-0.301-2.047-0.905-2.954
		c-0.605-0.904-1.508-1.357-2.713-1.357c-0.606,0-1.128,0.129-1.574,0.382c-0.442,0.252-0.816,0.579-1.117,0.975
		c-0.303,0.399-0.526,0.859-0.671,1.382c-0.141,0.524-0.213,1.042-0.213,1.547C94.814,12.534,94.887,13.065,95.027,13.557z"/>
	<path fill="#EC1B4F" d="M143.392,23.152c-3.491,0.19-7.004,0.319-10.524,0.381c0.029-0.917,0.048-1.824,0.048-2.712
		c-0.636,1.047-1.461,1.841-2.475,2.38c-1.049,0.573-2.398,0.843-4.052,0.811c-1.745-0.033-3.335-0.412-4.76-1.142
		c-1.368-0.73-2.524-1.667-3.478-2.811c-0.988-1.172-1.734-2.475-2.239-3.906c-0.509-1.427-0.764-2.872-0.764-4.332
		c0-1.492,0.255-2.969,0.764-4.432c0.505-1.396,1.255-2.681,2.239-3.854c0.953-1.174,2.109-2.126,3.478-2.859
		c1.427-0.729,3.015-1.11,4.76-1.14c1.651-0.032,3.003,0.222,4.052,0.762c1.014,0.507,1.839,1.191,2.475,2.047
		c-0.038-0.826-0.048-1.681-0.048-2.572c3.521,0.063,7.033,0.188,10.524,0.382C143.992,7.836,143.992,15.503,143.392,23.152z
		 M132.77,11.367c0-0.587-0.079-1.14-0.237-1.667c-0.158-0.522-0.391-0.998-0.693-1.429c-0.299-0.428-0.695-0.77-1.189-1.022
		c-0.495-0.255-1.04-0.382-1.643-0.382c-0.637,0-1.189,0.127-1.668,0.382c-0.474,0.254-0.862,0.595-1.165,1.022
		c-0.305,0.429-0.541,0.906-0.715,1.429c-0.174,0.527-0.26,1.08-0.26,1.667c0,0.588,0.079,1.143,0.237,1.667
		c0.16,0.523,0.396,1,0.715,1.43c0.318,0.428,0.706,0.771,1.165,1.024c0.463,0.253,1.023,0.38,1.691,0.38
		c0.604,0,1.146-0.127,1.646-0.38c0.491-0.255,0.887-0.597,1.189-1.024c0.303-0.427,0.533-0.906,0.69-1.43
		C132.69,12.509,132.77,11.955,132.77,11.367z"/>
</g>
<g>
	<path fill="#FFFFFF" d="M67.595,36.552c0.062,4-1.334,6.365-4.191,7.096c2.03,0.445,3.704,1.373,5.022,2.785
		c1.317,1.416,1.96,3.232,1.929,5.455c-0.096,3.015-1.129,5.475-3.097,7.379c-0.983,0.953-2.166,1.691-3.548,2.215
		c-1.381,0.523-2.91,0.801-4.595,0.833c-5.622,0.127-11.223-0.032-16.812-0.476c-0.382,0-0.708-0.142-0.977-0.43
		c-0.27-0.284-0.421-0.602-0.453-0.951c-0.57-10.507-0.57-20.985,0-31.43c0.032-0.38,0.183-0.705,0.453-0.977
		c0.269-0.267,0.595-0.419,0.977-0.453c5.112-0.38,10.237-0.538,15.38-0.476c2.825,0.031,5.16,0.945,7,2.738
		C66.528,31.653,67.496,33.885,67.595,36.552z M51.735,39.696c0.635,0,1.255,0,1.858,0c0.824,0,1.468-0.23,1.928-0.691
		c0.46-0.462,0.692-1.086,0.692-1.881c0-0.792-0.231-1.421-0.692-1.882c-0.46-0.461-1.088-0.691-1.88-0.691
		c-0.634,0-1.254,0-1.859,0C51.75,36.267,51.735,37.98,51.735,39.696z M51.83,53.219c0.986,0,1.954,0,2.907,0
		c0.826,0,1.498-0.224,2.023-0.667c0.526-0.444,0.786-1.078,0.786-1.905c0-0.824-0.255-1.452-0.762-1.882
		c-0.509-0.426-1.189-0.64-2.047-0.64c-0.985,0-1.955,0-2.907,0C51.83,49.807,51.83,51.505,51.83,53.219z"/>
	<path fill="#FFFFFF" d="M71.781,45.458c0.607-1.433,1.51-2.749,2.716-3.954c1.207-1.208,2.67-2.174,4.38-2.904
		c1.719-0.764,3.686-1.144,5.904-1.144c2.225,0,4.19,0.382,5.904,1.144c1.716,0.73,3.173,1.699,4.38,2.904
		c1.207,1.209,2.11,2.523,2.714,3.954c0.637,1.459,0.952,2.936,0.952,4.428c0,1.493-0.315,2.972-0.952,4.43
		c-0.604,1.43-1.507,2.746-2.714,3.953c-1.21,1.206-2.666,2.171-4.38,2.903c-1.715,0.765-3.682,1.14-5.904,1.14
		s-4.188-0.379-5.904-1.14c-1.712-0.732-3.175-1.698-4.38-2.903c-1.206-1.209-2.108-2.525-2.716-3.953
		c-0.634-1.458-0.952-2.937-0.952-4.43C70.829,48.394,71.147,46.917,71.781,45.458z M81.211,49.886c0,0.57,0.072,1.129,0.214,1.667
		c0.146,0.54,0.378,1.013,0.694,1.432c0.314,0.411,0.696,0.753,1.14,1.021c0.445,0.27,0.959,0.403,1.549,0.403
		c0.587,0,1.104-0.134,1.55-0.403c0.44-0.269,0.825-0.61,1.14-1.021c0.321-0.416,0.549-0.892,0.692-1.432
		c0.142-0.541,0.214-1.097,0.214-1.667c0-0.569-0.072-1.128-0.214-1.666c-0.144-0.54-0.371-1.024-0.692-1.45
		c-0.317-0.431-0.699-0.772-1.14-1.025c-0.446-0.256-0.963-0.381-1.55-0.381c-0.59,0-1.104,0.125-1.549,0.381
		c-0.443,0.255-0.827,0.595-1.14,1.025c-0.316,0.426-0.549,0.91-0.694,1.45C81.283,48.758,81.211,49.316,81.211,49.886z"/>
	<path fill="#FFFFFF" d="M114.307,38.788c1.078-0.505,2.413-0.762,4.002-0.762c1.808,0,3.393,0.365,4.759,1.097
		c1.363,0.729,2.501,1.664,3.409,2.811c0.904,1.14,1.578,2.428,2.02,3.855c0.447,1.429,0.651,2.905,0.62,4.428
		c-0.03,1.461-0.299,2.923-0.808,4.38c-0.477,1.461-1.176,2.781-2.094,3.953c-0.925,1.173-2.051,2.143-3.381,2.905
		c-1.368,0.794-2.908,1.207-4.622,1.241c-1.65,0.031-2.984-0.289-3.998-0.952c-0.985-0.636-1.825-1.386-2.525-2.241
		c0.033,0.855,0.047,1.729,0.047,2.619c-3.586-0.062-7.175-0.254-10.761-0.574c-0.604-11.554-0.588-23.108,0.049-34.664
		c3.555-0.317,7.126-0.509,10.712-0.572c-0.063,4.825-0.095,9.669-0.095,14.524C112.373,39.981,113.262,39.297,114.307,38.788z
		 M118.596,50.243c0-1.064-0.305-2.039-0.906-2.93c-0.605-0.889-1.509-1.333-2.716-1.333c-0.602,0-1.129,0.118-1.571,0.357
		c-0.446,0.237-0.818,0.562-1.119,0.976c-0.304,0.411-0.524,0.874-0.667,1.383s-0.213,1.014-0.213,1.521
		c0,0.571,0.079,1.105,0.237,1.596c0.16,0.491,0.38,0.945,0.667,1.357c0.283,0.413,0.648,0.739,1.095,0.977
		c0.442,0.237,0.97,0.357,1.571,0.357c1.207,0,2.11-0.443,2.716-1.334C118.291,52.281,118.596,51.307,118.596,50.243z"/>
	<path fill="#FFFFFF" d="M159.551,61.409c-3.492,0.188-7.002,0.321-10.524,0.383c0.032-0.918,0.046-1.825,0.046-2.712
		c-0.636,1.045-1.461,1.839-2.475,2.379c-1.049,0.57-2.399,0.839-4.05,0.808c-1.746-0.031-3.336-0.409-4.762-1.142
		c-1.366-0.729-2.524-1.667-3.477-2.809c-0.983-1.176-1.731-2.475-2.24-3.905c-0.503-1.427-0.763-2.874-0.763-4.335
		c0-1.488,0.258-2.969,0.763-4.428c0.509-1.396,1.259-2.682,2.24-3.857c0.952-1.174,2.108-2.126,3.477-2.856
		c1.427-0.729,3.016-1.11,4.762-1.144c1.65-0.032,3.001,0.222,4.05,0.762c1.014,0.509,1.839,1.193,2.475,2.049
		c-0.032-0.825-0.046-1.685-0.046-2.571c3.523,0.065,7.032,0.189,10.524,0.384C160.149,46.096,160.149,53.76,159.551,61.409z
		 M148.929,49.622c0-0.588-0.083-1.143-0.241-1.665s-0.389-1.001-0.688-1.429c-0.304-0.43-0.697-0.77-1.192-1.024
		c-0.495-0.254-1.042-0.382-1.646-0.382c-0.634,0-1.189,0.128-1.665,0.382c-0.477,0.256-0.866,0.595-1.166,1.024
		c-0.303,0.427-0.543,0.906-0.715,1.429s-0.261,1.077-0.261,1.665s0.078,1.142,0.236,1.668c0.158,0.522,0.4,1,0.716,1.428
		c0.315,0.429,0.706,0.771,1.165,1.024c0.464,0.255,1.026,0.382,1.691,0.382c0.605,0,1.148-0.127,1.644-0.382
		c0.495-0.256,0.89-0.596,1.194-1.024c0.299-0.426,0.529-0.905,0.689-1.428C148.85,50.766,148.929,50.21,148.929,49.622z"/>
</g>
<g>
	<path fill="#85CCB1" d="M17.125,29.251c1.033,14.364-3.419,26.209-26.505,28.047c-21.452,1.711-29.212-9.605-30.244-23.973
		c-1.03-14.361,3.979-26.077,26.507-28.047C10.318,3.229,16.092,14.888,17.125,29.251z"/>
	<path fill="#FFFFFF" d="M-22.222,36.128c-4.12,0.298-7.708-2.753-7.998-6.796c-0.292-4.043,2.824-7.573,6.946-7.869
		c4.119-0.297,7.709,2.752,7.999,6.796C-14.986,32.301-18.1,35.83-22.222,36.128z M-23.119,23.643
		c-2.916,0.21-5.123,2.692-4.919,5.531c0.204,2.841,2.742,4.982,5.659,4.771c2.917-0.211,5.124-2.69,4.919-5.531
		C-17.661,25.573-20.202,23.434-23.119,23.643z"/>
	<path d="M-10.132,38.766c-2.31,0.167-4.312-1.462-4.467-3.633l0.728-0.053c0.125,1.769,1.781,3.095,3.686,2.957
		c1.906-0.137,3.352-1.684,3.225-3.452l0.729-0.054C-6.077,36.701-7.826,38.6-10.132,38.766z"/>
	<path fill="#B8DEC6" d="M-34.463,5.593c-3.556,1.008,7.791,11.67,23.726,6.456c5.643-1.847,10.249-6.408,8.784-11.577
		c-1.464-5.167-7.39-8.036-13.125-6.485C-25.026-3.326-22.666,2.255-34.463,5.593z"/>
	<g>
		<path fill="#85CCB1" d="M-34.141,6.242c-0.488,0.16,1.087,1.854,1.387,2.133c1.841,1.679,4.281,2.716,6.634,3.434
			c7.055,2.15,17.545,1.093,22.167-5.292c2.529-3.49,1.173-7.925-2.101-10.374C-9.751-6.618-14.629-5.92-18.5-3.964
			c-2.519,1.274-4.271,3.445-6.309,5.316C-27.46,3.787-30.715,5.241-34.141,6.242c-1.002,0.294-1.795-0.96-0.646-1.298
			c3.803-1.108,6.976-2.79,9.782-5.588c2.078-2.069,4.08-3.861,6.798-5.062c3.658-1.614,7.748-1.968,11.458-0.351
			c3.295,1.439,5.78,4.571,5.974,8.213c0.191,3.6-2.498,6.549-5.263,8.444c-3.328,2.282-7.64,3.228-11.605,3.522
			c-5.68,0.422-11.974-0.978-16.411-4.699c-1.208-1.011-3.272-3.646-0.732-4.481C-33.788,4.618-33.003,5.869-34.141,6.242z"/>
		<path fill="#85CCB1" d="M-33.205,5.839c3.024,0.927,5.813,0.688,8.662-0.639c1.795-0.836,3.36-2.094,5.041-3.124
			c3.062-1.877,7.565-3.268,11.178-2.522c2.381,0.49,4.038,1.968,5.554,3.78c1.122,1.346,4.355,4.5,3.56,6.651
			c-0.238,0.649-2.031,0.819-1.775,0.129c0.207-0.562-0.171-1.339-0.382-1.835c-0.708-1.679-2.037-3.057-3.191-4.438
			c-1.722-2.064-3.664-3.43-6.466-3.358c-4.23,0.109-7.552,2.516-10.993,4.613c-3.788,2.308-7.994,3.074-12.273,1.761
			C-35.313,6.542-33.839,5.645-33.205,5.839L-33.205,5.839z"/>
	</g>
	<path fill="#FFFFFF" d="M1.526,34.178c-4.119,0.296-7.709-2.752-7.998-6.798c-0.291-4.044,2.825-7.571,6.944-7.867
		c4.122-0.296,7.71,2.753,8,6.796C8.763,30.354,5.647,33.882,1.526,34.178z M0.63,21.694c-2.917,0.21-5.123,2.691-4.921,5.532
		c0.206,2.839,2.744,4.981,5.659,4.771c2.918-0.212,5.125-2.693,4.921-5.534C6.086,23.624,3.547,21.485,0.63,21.694z"/>
	
		<ellipse transform="matrix(-0.0713 -0.9975 0.9975 -0.0713 -67.615 14.4521)" fill="#F5ADCD" cx="-27.079" cy="38.704" rx="1.428" ry="3.436"/>
	<path fill="#F5ADCD" d="M10.525,34.965c0.057,0.787-1.431,1.536-3.322,1.673c-1.893,0.135-3.472-0.393-3.528-1.182
		c-0.057-0.784,1.43-1.533,3.323-1.671C8.891,33.649,10.47,34.18,10.525,34.965z"/>
	<path d="M-20.138,17.678c0,0-2.409-3.551-5.754-2.37c-3.346,1.182-4.238,4.517-2.637,4.507c1.601-0.011,1.294-3.498,4.584-3.307
		c1.126,0.063,2.502,0.86,3.223,1.167C-20.183,17.904-20.138,17.678-20.138,17.678z"/>
	<path d="M-4.848,15.847c0,0,1.876-3.857,5.357-3.165c3.48,0.69,4.84,3.861,3.253,4.082c-1.587,0.218-1.78-3.275-5.011-2.618
		c-1.107,0.225-2.353,1.208-3.023,1.617C-4.772,16.067-4.848,15.847-4.848,15.847z"/>
	
		<ellipse transform="matrix(0.2039 -0.979 0.979 0.2039 -46.1499 0.5142)" fill="#020202" cx="-22.759" cy="28.633" rx="5.239" ry="5.427"/>
	
		<ellipse transform="matrix(0.204 -0.979 0.979 0.204 -25.3565 22.4833)" fill="#020202" cx="1.148" cy="26.834" rx="5.243" ry="5.428"/>
	
		<ellipse transform="matrix(0.2039 -0.979 0.979 0.2039 -41.7709 0.69)" fill="#FFFFFF" cx="-20.461" cy="26.03" rx="1.548" ry="1.601"/>
	
		<ellipse transform="matrix(0.2037 -0.979 0.979 0.2037 -21.1036 23.0656)" fill="#FFFFFF" cx="3.628" cy="24.506" rx="1.545" ry="1.6"/>
</g>
</svg>
